<?xml version="1.0" encoding="UTF-8" standalone="no"?>
<!-- Created with Inkscape (http://www.inkscape.org/) -->

<svg
   xmlns:dc="http://purl.org/dc/elements/1.1/"
   xmlns:cc="http://creativecommons.org/ns#"
   xmlns:rdf="http://www.w3.org/1999/02/22-rdf-syntax-ns#"
   xmlns:svg="http://www.w3.org/2000/svg"
   xmlns="http://www.w3.org/2000/svg"
   xmlns:sodipodi="http://sodipodi.sourceforge.net/DTD/sodipodi-0.dtd"
   xmlns:inkscape="http://www.inkscape.org/namespaces/inkscape"
   width="210mm"
   height="297mm"
   viewBox="0 0 744.09448819 1052.3622047"
   id="svg2"
   version="1.1"
   inkscape:version="0.91 r13725"
   sodipodi:docname="new-pin-logo.svg">
  <defs
     id="defs4" />
  <sodipodi:namedview
     id="base"
     pagecolor="#ffffff"
     bordercolor="#666666"
     borderopacity="1.0"
     inkscape:pageopacity="0.0"
     inkscape:pageshadow="2"
     inkscape:zoom="0.49497475"
     inkscape:cx="101.24954"
     inkscape:cy="570.45579"
     inkscape:document-units="px"
     inkscape:current-layer="layer1"
     showgrid="false"
     inkscape:window-width="1366"
     inkscape:window-height="715"
     inkscape:window-x="0"
     inkscape:window-y="0"
     inkscape:window-maximized="1" />
  <metadata
     id="metadata7">
    <rdf:RDF>
      <cc:Work
         rdf:about="">
        <dc:format>image/svg+xml</dc:format>
        <dc:type
           rdf:resource="http://purl.org/dc/dcmitype/StillImage" />
        <dc:title />
      </cc:Work>
    </rdf:RDF>
  </metadata>
  <g
     inkscape:label="Layer 1"
     inkscape:groupmode="layer"
     id="layer1">
    <g
       id="g4144"
       transform="translate(50.507627,-161.62441)">
      <rect
         inkscape:export-ydpi="91.971725"
         inkscape:export-xdpi="91.971725"
         y="196.05417"
         x="134.90718"
         height="384.2724"
         width="385.55328"
         id="rect4162"
         style="fill:#f2f2f2;fill-opacity:1;stroke:none;stroke-width:1.60000002;stroke-linecap:round;stroke-linejoin:miter;stroke-miterlimit:4;stroke-dasharray:none;stroke-opacity:1" />
      <text
         inkscape:export-ydpi="91.971725"
         inkscape:export-xdpi="91.971725"
         sodipodi:linespacing="125%"
         id="text4325"
         y="525.37695"
         x="188.16937"
         style="font-style:normal;font-weight:normal;font-size:211.7049408px;line-height:125%;font-family:sans-serif;letter-spacing:0px;word-spacing:0px;fill:#000000;fill-opacity:1;stroke:none;stroke-width:1px;stroke-linecap:butt;stroke-linejoin:miter;stroke-opacity:1"
         xml:space="preserve"><tspan
           style="font-style:normal;font-variant:normal;font-weight:normal;font-stretch:extra-condensed;font-size:79.38935089px;font-family:'Input Mono Compressed';-inkscape-font-specification:'Input Mono Compressed Extra-Condensed';letter-spacing:-8.52112579px"
           y="525.37695"
           x="188.16937"
           id="tspan4327"
           sodipodi:role="line"><tspan
   id="tspan4329"
   style="font-style:normal;font-variant:normal;font-weight:500;font-stretch:extra-condensed;font-size:79.38935089px;font-family:'Input Mono Compressed';-inkscape-font-specification:'Input Mono Compressed Medium Extra-Condensed';letter-spacing:-8.52112579px">pin</tspan>-lang</tspan></text>
      <g
         inkscape:export-ydpi="91.971725"
         inkscape:export-xdpi="91.971725"
         id="g4331"
         transform="matrix(5.7847395,2.9100424,-2.9100424,5.7847395,-35.243793,-242.71973)"
         style="fill:#c83737">
        <path
           d="m 86.744141,53.283203 c -2.033699,0.249939 -3.863925,0.699218 -5.363282,1.306641 -1.184381,0.479819 -2.166443,1.054166 -2.884765,1.742187 -0.718323,0.688022 -1.183594,1.526233 -1.183594,2.44336 0,0.917126 0.465271,1.755338 1.183594,2.443359 0.718322,0.688021 1.700384,1.262368 2.884765,1.742188 2.041647,0.827114 4.695512,1.363037 7.644532,1.496093 0.478903,1.456352 0.958597,7.172605 1.4375,8.337891 0.47889,-1.165257 0.956655,-6.881361 1.435547,-8.337891 2.949807,-0.132904 5.604382,-0.668794 7.646484,-1.496093 1.184378,-0.47982 2.166438,-1.054167 2.884768,-1.742188 0.71832,-0.688021 1.18359,-1.526233 1.18359,-2.443359 0,-0.917127 -0.46527,-1.755338 -1.18359,-2.44336 -0.71833,-0.688021 -1.70039,-1.262368 -2.884768,-1.742187 -1.499357,-0.607423 -3.329583,-1.056702 -5.363281,-1.306641 l 0,1.318359 c 1.874889,0.242793 3.544918,0.661956 4.871093,1.199219 1.077086,0.436352 1.926236,0.953195 2.472656,1.476563 0.54642,0.523368 0.7793,1.017144 0.7793,1.498047 0,0.480903 -0.23288,0.974677 -0.7793,1.498047 -0.54642,0.523367 -1.39557,1.038257 -2.472656,1.474609 -2.154171,0.872703 -5.210555,1.435547 -8.589843,1.435547 -3.379289,0 -6.437626,-0.562844 -8.591797,-1.435547 -1.077086,-0.436352 -1.924286,-0.951242 -2.470703,-1.474609 -0.546418,-0.523368 -0.78125,-1.017144 -0.78125,-1.498047 0,-0.480903 0.234832,-0.974679 0.78125,-1.498047 0.546417,-0.523368 1.393617,-1.040211 2.470703,-1.476563 1.32621,-0.537277 2.997529,-0.956429 4.873047,-1.199219 l 0,-1.318359 z m -1.16211,5.121094 c -0.002,0.0277 -0.0098,0.05387 -0.0098,0.08203 0,0.386418 0.196205,0.733423 0.476562,1.001953 0.280357,0.268531 0.650723,0.482257 1.089844,0.660157 0.878241,0.355795 2.041334,0.5625 3.324219,0.5625 1.282884,0 2.445977,-0.206705 3.324218,-0.5625 0.439121,-0.177898 0.807534,-0.391626 1.087891,-0.660157 0.280357,-0.26853 0.478516,-0.615535 0.478516,-1.001953 0,-0.02816 -0.0077,-0.05433 -0.0098,-0.08203 l -0.824219,0 c 0.0058,0.02691 0.02148,0.0568 0.02148,0.08203 0,0.115279 -0.05306,0.247874 -0.226563,0.414063 -0.173508,0.166188 -0.461554,0.343261 -0.833984,0.49414 -0.74486,0.30176 -1.823694,0.501953 -3.017578,0.501953 -1.193884,0 -2.274672,-0.200193 -3.019532,-0.501953 -0.372429,-0.150879 -0.658523,-0.327952 -0.832031,-0.49414 -0.173508,-0.166189 -0.226562,-0.298784 -0.226562,-0.414063 0,-0.02523 0.0157,-0.05512 0.02148,-0.08203 l -0.824219,0 z m 4.88086,-18.494141 c -2.546175,0 -4.85409,0.412142 -6.570313,1.107422 -0.858111,0.34764 -1.569702,0.763683 -2.09375,1.265625 -0.524048,0.501942 -0.86914,1.11852 -0.86914,1.794922 0,0.676402 0.345092,1.29298 0.86914,1.794922 0.524048,0.501942 1.235639,0.917985 2.09375,1.265625 1.716223,0.69528 4.024138,1.107422 6.570313,1.107422 2.546174,0 4.852136,-0.412142 6.568359,-1.107422 0.858111,-0.34764 1.571655,-0.763683 2.095703,-1.265625 0.524048,-0.501942 0.867188,-1.11852 0.867188,-1.794922 0,-0.676402 -0.34314,-1.29298 -0.867188,-1.794922 -0.524048,-0.501942 -1.237592,-0.917985 -2.095703,-1.265625 -1.716223,-0.69528 -4.022185,-1.107422 -6.568359,-1.107422 z m 0,1.03125 c 2.433199,0 4.634729,0.406515 6.18164,1.033203 0.773456,0.313344 1.379162,0.682656 1.767578,1.054688 0.388417,0.372032 0.550782,0.716602 0.550782,1.048828 0,0.332226 -0.162365,0.676796 -0.550782,1.048828 -0.388416,0.372032 -0.994122,0.743297 -1.767578,1.056641 -1.546911,0.626688 -3.748441,1.03125 -6.18164,1.03125 -2.4332,0 -4.63473,-0.404562 -6.181641,-1.03125 -0.773456,-0.313344 -1.381115,-0.684609 -1.769531,-1.056641 -0.388417,-0.372032 -0.548828,-0.716602 -0.548828,-1.048828 0,-0.332226 0.160411,-0.676796 0.548828,-1.048828 0.388416,-0.372032 0.996075,-0.741344 1.769531,-1.054688 1.546911,-0.626688 3.748441,-1.033203 6.181641,-1.033203 z m -8.638672,3.578125 -0.283203,0.384766 c -0.281156,0.382475 -0.440642,0.805626 -0.44336,1.238281 l 0,0.002 c 9.3e-5,0.620999 0.31417,1.192824 0.816406,1.673828 0.502237,0.481005 1.198516,0.890323 2.042969,1.232422 1.688907,0.684198 3.97803,1.095666 6.50586,1.095703 2.527829,-3.7e-5 4.816952,-0.411505 6.505859,-1.095703 0.844453,-0.342099 1.540732,-0.751417 2.042969,-1.232422 0.502237,-0.481004 0.816314,-1.052829 0.816406,-1.673828 l 0,-0.002 C 99.825621,45.710779 99.66863,45.28816 99.388672,44.90625 l -0.283203,-0.386719 -0.283203,0.386719 c -0.4868,0.667186 -1.587157,1.313765 -3.066407,1.761719 -1.479249,0.447953 -3.327205,0.712576 -5.292968,0.71289 -1.966064,-6.13e-4 -3.814062,-0.264605 -5.292969,-0.71289 -1.478907,-0.448286 -2.578627,-1.094499 -3.064453,-1.761719 l -0.28125,-0.386719 z m 0.144531,1.16211 c 0.691288,0.688099 1.682191,1.257388 2.998047,1.65625 1.560295,0.472955 3.467833,0.741554 5.496094,0.742187 2.027951,-3.25e-4 3.935503,-0.269602 5.496093,-0.742187 1.315288,-0.398302 2.30599,-0.965226 2.998047,-1.652344 0.06244,0.154004 0.171012,0.312104 0.171875,0.460937 -5.6e-4,0.387051 -0.191858,0.773632 -0.601562,1.166016 -0.410247,0.392903 -1.033277,0.771005 -1.820313,1.089844 -1.574072,0.637676 -3.792936,1.044885 -6.24414,1.044922 -2.451204,-3.7e-5 -4.670069,-0.407246 -6.244141,-1.044922 -0.787036,-0.318839 -1.410066,-0.696941 -1.820312,-1.089844 -0.409705,-0.392384 -0.601003,-0.778965 -0.601563,-1.166016 l 0,-0.002 c 0.0012,-0.149386 0.108642,-0.308265 0.171875,-0.46289 z"
           style="color:#000000;font-style:normal;font-variant:normal;font-weight:normal;font-stretch:normal;font-size:medium;line-height:normal;font-family:sans-serif;text-indent:0;text-align:start;text-decoration:none;text-decoration-line:none;text-decoration-style:solid;text-decoration-color:#000000;letter-spacing:normal;word-spacing:normal;text-transform:none;direction:ltr;block-progression:tb;writing-mode:lr-tb;baseline-shift:baseline;text-anchor:start;white-space:normal;clip-rule:nonzero;display:inline;overflow:visible;visibility:visible;opacity:1;isolation:auto;mix-blend-mode:normal;color-interpolation:sRGB;color-interpolation-filters:linearRGB;solid-color:#000000;solid-opacity:1;fill:#c83737;fill-opacity:1;fill-rule:nonzero;stroke:none;stroke-width:0.81300002;stroke-linecap:round;stroke-linejoin:miter;stroke-miterlimit:4;stroke-dasharray:none;stroke-dashoffset:0;stroke-opacity:1;color-rendering:auto;image-rendering:auto;shape-rendering:auto;text-rendering:auto;enable-background:accumulate"
           id="path4333"
           inkscape:connector-curvature="0" />
      </g>
    </g>
    <g
       transform="matrix(6.4316694,0,0,6.4316694,-203.63596,282.66249)"
       id="g4219">
      <path
         inkscape:connector-curvature="0"
         id="ellipse4206"
         style="color:#000000;font-style:normal;font-variant:normal;font-weight:normal;font-stretch:normal;font-size:medium;line-height:normal;font-family:sans-serif;text-indent:0;text-align:start;text-decoration:none;text-decoration-line:none;text-decoration-style:solid;text-decoration-color:#000000;letter-spacing:normal;word-spacing:normal;text-transform:none;direction:ltr;block-progression:tb;writing-mode:lr-tb;baseline-shift:baseline;text-anchor:start;white-space:normal;clip-rule:nonzero;display:inline;overflow:visible;visibility:visible;opacity:1;isolation:auto;mix-blend-mode:normal;color-interpolation:sRGB;color-interpolation-filters:linearRGB;solid-color:#000000;solid-opacity:1;fill:#000000;fill-opacity:1;fill-rule:nonzero;stroke:none;stroke-width:0.81300002;stroke-linecap:round;stroke-linejoin:miter;stroke-miterlimit:4;stroke-dasharray:none;stroke-dashoffset:0;stroke-opacity:1;color-rendering:auto;image-rendering:auto;shape-rendering:auto;text-rendering:auto;enable-background:accumulate"
         d="m 86.744141,53.283203 c -2.033699,0.249939 -3.863925,0.699218 -5.363282,1.306641 -1.184381,0.479819 -2.166443,1.054166 -2.884765,1.742187 -0.718323,0.688022 -1.183594,1.526233 -1.183594,2.44336 0,0.917126 0.465271,1.755338 1.183594,2.443359 0.718322,0.688021 1.700384,1.262368 2.884765,1.742188 2.041647,0.827114 4.695512,1.363037 7.644532,1.496093 0.478903,1.456352 0.958597,7.172605 1.4375,8.337891 0.47889,-1.165257 0.956655,-6.881361 1.435547,-8.337891 2.949807,-0.132904 5.604382,-0.668794 7.646484,-1.496093 1.184378,-0.47982 2.166438,-1.054167 2.884768,-1.742188 0.71832,-0.688021 1.18359,-1.526233 1.18359,-2.443359 0,-0.917127 -0.46527,-1.755338 -1.18359,-2.44336 -0.71833,-0.688021 -1.70039,-1.262368 -2.884768,-1.742187 -1.499357,-0.607423 -3.329583,-1.056702 -5.363281,-1.306641 l 0,1.318359 c 1.874889,0.242793 3.544918,0.661956 4.871093,1.199219 1.077086,0.436352 1.926236,0.953195 2.472656,1.476563 0.54642,0.523368 0.7793,1.017144 0.7793,1.498047 0,0.480903 -0.23288,0.974677 -0.7793,1.498047 -0.54642,0.523367 -1.39557,1.038257 -2.472656,1.474609 -2.154171,0.872703 -5.210555,1.435547 -8.589843,1.435547 -3.379289,0 -6.437626,-0.562844 -8.591797,-1.435547 -1.077086,-0.436352 -1.924286,-0.951242 -2.470703,-1.474609 -0.546418,-0.523368 -0.78125,-1.017144 -0.78125,-1.498047 0,-0.480903 0.234832,-0.974679 0.78125,-1.498047 0.546417,-0.523368 1.393617,-1.040211 2.470703,-1.476563 1.32621,-0.537277 2.997529,-0.956429 4.873047,-1.199219 l 0,-1.318359 z m -1.16211,5.121094 c -0.002,0.0277 -0.0098,0.05387 -0.0098,0.08203 0,0.386418 0.196205,0.733423 0.476562,1.001953 0.280357,0.268531 0.650723,0.482257 1.089844,0.660157 0.878241,0.355795 2.041334,0.5625 3.324219,0.5625 1.282884,0 2.445977,-0.206705 3.324218,-0.5625 0.439121,-0.177898 0.807534,-0.391626 1.087891,-0.660157 0.280357,-0.26853 0.478516,-0.615535 0.478516,-1.001953 0,-0.02816 -0.0077,-0.05433 -0.0098,-0.08203 l -0.824219,0 c 0.0058,0.02691 0.02148,0.0568 0.02148,0.08203 0,0.115279 -0.05306,0.247874 -0.226563,0.414063 -0.173508,0.166188 -0.461554,0.343261 -0.833984,0.49414 -0.74486,0.30176 -1.823694,0.501953 -3.017578,0.501953 -1.193884,0 -2.274672,-0.200193 -3.019532,-0.501953 -0.372429,-0.150879 -0.658523,-0.327952 -0.832031,-0.49414 -0.173508,-0.166189 -0.226562,-0.298784 -0.226562,-0.414063 0,-0.02523 0.0157,-0.05512 0.02148,-0.08203 l -0.824219,0 z m 4.88086,-18.494141 c -2.546175,0 -4.85409,0.412142 -6.570313,1.107422 -0.858111,0.34764 -1.569702,0.763683 -2.09375,1.265625 -0.524048,0.501942 -0.86914,1.11852 -0.86914,1.794922 0,0.676402 0.345092,1.29298 0.86914,1.794922 0.524048,0.501942 1.235639,0.917985 2.09375,1.265625 1.716223,0.69528 4.024138,1.107422 6.570313,1.107422 2.546174,0 4.852136,-0.412142 6.568359,-1.107422 0.858111,-0.34764 1.571655,-0.763683 2.095703,-1.265625 0.524048,-0.501942 0.867188,-1.11852 0.867188,-1.794922 0,-0.676402 -0.34314,-1.29298 -0.867188,-1.794922 -0.524048,-0.501942 -1.237592,-0.917985 -2.095703,-1.265625 -1.716223,-0.69528 -4.022185,-1.107422 -6.568359,-1.107422 z m 0,1.03125 c 2.433199,0 4.634729,0.406515 6.18164,1.033203 0.773456,0.313344 1.379162,0.682656 1.767578,1.054688 0.388417,0.372032 0.550782,0.716602 0.550782,1.048828 0,0.332226 -0.162365,0.676796 -0.550782,1.048828 -0.388416,0.372032 -0.994122,0.743297 -1.767578,1.056641 -1.546911,0.626688 -3.748441,1.03125 -6.18164,1.03125 -2.4332,0 -4.63473,-0.404562 -6.181641,-1.03125 -0.773456,-0.313344 -1.381115,-0.684609 -1.769531,-1.056641 -0.388417,-0.372032 -0.548828,-0.716602 -0.548828,-1.048828 0,-0.332226 0.160411,-0.676796 0.548828,-1.048828 0.388416,-0.372032 0.996075,-0.741344 1.769531,-1.054688 1.546911,-0.626688 3.748441,-1.033203 6.181641,-1.033203 z m -8.638672,3.578125 -0.283203,0.384766 c -0.281156,0.382475 -0.440642,0.805626 -0.44336,1.238281 l 0,0.002 c 9.3e-5,0.620999 0.31417,1.192824 0.816406,1.673828 0.502237,0.481005 1.198516,0.890323 2.042969,1.232422 1.688907,0.684198 3.97803,1.095666 6.50586,1.095703 2.527829,-3.7e-5 4.816952,-0.411505 6.505859,-1.095703 0.844453,-0.342099 1.540732,-0.751417 2.042969,-1.232422 0.502237,-0.481004 0.816314,-1.052829 0.816406,-1.673828 l 0,-0.002 C 99.825621,45.710779 99.66863,45.28816 99.388672,44.90625 l -0.283203,-0.386719 -0.283203,0.386719 c -0.4868,0.667186 -1.587157,1.313765 -3.066407,1.761719 -1.479249,0.447953 -3.327205,0.712576 -5.292968,0.71289 -1.966064,-6.13e-4 -3.814062,-0.264605 -5.292969,-0.71289 -1.478907,-0.448286 -2.578627,-1.094499 -3.064453,-1.761719 l -0.28125,-0.386719 z m 0.144531,1.16211 c 0.691288,0.688099 1.682191,1.257388 2.998047,1.65625 1.560295,0.472955 3.467833,0.741554 5.496094,0.742187 2.027951,-3.25e-4 3.935503,-0.269602 5.496093,-0.742187 1.315288,-0.398302 2.30599,-0.965226 2.998047,-1.652344 0.06244,0.154004 0.171012,0.312104 0.171875,0.460937 -5.6e-4,0.387051 -0.191858,0.773632 -0.601562,1.166016 -0.410247,0.392903 -1.033277,0.771005 -1.820313,1.089844 -1.574072,0.637676 -3.792936,1.044885 -6.24414,1.044922 -2.451204,-3.7e-5 -4.670069,-0.407246 -6.244141,-1.044922 -0.787036,-0.318839 -1.410066,-0.696941 -1.820312,-1.089844 -0.409705,-0.392384 -0.601003,-0.778965 -0.601563,-1.166016 l 0,-0.002 c 0.0012,-0.149386 0.108642,-0.308265 0.171875,-0.46289 z" />
    </g>
  </g>
</svg>
